<svg width="800" height="600" viewBox="0 0 800 600" fill="none" xmlns="http://www.w3.org/2000/svg">
  <rect width="800" height="600" fill="#F3F4F6"/>
  <path d="M400 200C344.772 200 300 244.772 300 300C300 355.228 344.772 400 400 400C455.228 400 500 355.228 500 300C500 244.772 455.228 200 400 200ZM400 380C355.817 380 320 344.183 320 300C320 255.817 355.817 220 400 220C444.183 220 480 255.817 480 300C480 344.183 444.183 380 400 380Z" fill="#E5E7EB"/>
  <path d="M360 280C348.954 280 340 288.954 340 300C340 311.046 348.954 320 360 320C371.046 320 380 311.046 380 300C380 288.954 371.046 280 360 280Z" fill="#9CA3AF"/>
  <path d="M440 280C428.954 280 420 288.954 420 300C420 311.046 428.954 320 440 320C451.046 320 460 311.046 460 300C460 288.954 451.046 280 440 280Z" fill="#9CA3AF"/>
  <path d="M400 340C388.954 340 380 348.954 380 360H420C420 348.954 411.046 340 400 340Z" fill="#9CA3AF"/>
</svg>
